<svg id="svg" version="1.1" xmlns="http://www.w3.org/2000/svg" xmlns:xlink="http://www.w3.org/1999/xlink" width="400" height="400" viewBox="0, 0, 400,400"><g id="svgg"><path id="path0" d="M97.333 49.726 C 96.417 49.879,93.422 50.336,90.678 50.742 C 81.531 52.096,66.418 58.311,57.288 64.474 C 19.056 90.283,7.627 130.901,24.313 181.667 C 30.368 200.085,45.811 229.000,49.594 229.000 C 52.735 229.000,52.331 227.072,47.623 219.599 C 6.001 153.540,15.040 89.301,69.667 62.938 C 85.322 55.382,94.997 53.465,111.758 54.598 C 154.397 57.479,184.770 84.977,195.044 130.000 C 196.624 136.921,197.779 138.941,199.916 138.519 C 201.230 138.260,201.443 137.795,206.393 124.347 C 223.573 77.675,244.595 60.213,287.856 56.678 C 325.111 53.635,353.228 71.886,370.000 110.001 C 379.777 132.217,375.064 173.693,359.276 204.391 C 350.867 220.739,332.123 248.495,330.089 247.609 C 317.325 242.051,311.055 240.693,298.085 240.678 L 287.837 240.667 283.631 236.733 C 264.513 218.849,258.706 217.617,242.063 227.915 C 222.828 239.816,211.223 245.293,193.830 250.679 C 184.691 253.510,182.776 254.730,179.201 260.000 L 178.070 261.667 177.993 259.667 C 177.198 239.138,170.826 163.700,169.833 163.075 C 167.882 161.846,166.450 163.328,166.250 166.783 C 166.013 170.851,156.792 255.039,156.259 258.000 L 155.839 260.333 154.665 257.621 C 153.655 255.287,152.899 254.654,149.246 253.079 C 146.910 252.073,141.184 249.168,136.520 246.625 C 126.611 241.220,126.378 241.193,119.660 244.628 C 104.018 252.627,87.034 255.820,71.924 253.601 C 69.599 253.259,67.333 254.447,67.333 256.008 C 67.333 258.458,108.816 299.869,129.066 317.635 C 155.056 340.436,196.476 372.000,200.407 372.000 C 202.949 372.000,232.667 350.015,253.701 332.573 C 276.260 313.868,306.000 286.593,306.000 284.611 C 306.000 280.474,303.587 281.707,293.830 290.831 C 262.968 319.692,238.602 339.907,209.398 360.879 L 200.463 367.295 194.065 362.897 C 158.291 338.302,90.011 278.471,77.224 260.514 L 75.834 258.561 81.107 259.021 C 90.429 259.834,108.312 255.437,120.504 249.335 C 127.044 246.062,125.156 245.786,135.894 251.583 C 140.902 254.286,146.050 256.836,147.333 257.248 C 149.311 257.884,150.073 258.778,152.333 263.118 C 155.097 268.425,156.954 269.928,158.922 268.454 C 159.851 267.758,163.350 239.076,168.126 193.000 C 168.240 191.900,169.618 208.698,171.187 230.330 C 173.127 257.064,174.302 269.922,174.858 270.477 C 176.473 272.092,178.631 270.614,181.099 266.201 C 185.216 258.839,185.818 258.366,194.864 255.404 C 211.575 249.931,223.086 244.660,238.674 235.344 C 260.278 222.432,262.253 222.658,280.275 240.108 L 285.551 245.216 298.609 245.457 C 312.656 245.717,315.670 246.384,328.578 252.084 L 332.155 253.664 334.293 251.191 C 345.787 237.893,363.638 208.291,369.953 192.054 C 380.044 166.107,382.675 128.680,375.627 111.358 C 358.573 69.445,328.499 49.233,287.445 52.092 C 242.183 55.243,214.831 79.155,199.852 128.667 C 199.686 129.217,199.325 128.467,199.049 127.000 C 193.995 100.062,173.286 71.792,149.968 59.999 C 135.563 52.713,109.695 47.665,97.333 49.726 " stroke="none" fill="#000000" fill-rule="evenodd"></path></g></svg>